<svg xmlns="http://www.w3.org/2000/svg" width="303.004" height="303" viewBox="0 0 303.004 303">
    <path id="prefix__Shape" fill="#dff1e6" d="M297.947 303H116.156a5.057 5.057 0 0 1-5.055-5.049v-50.5H5.055A5.055 5.055 0 0 1 .006 242.4v-101a5.055 5.055 0 0 1 5.049-5.049h27.494l-13.213-13.2L1.48 105.293a5.041 5.041 0 0 1 0-7.141L19.336 80.3l35.707-35.715L72.9 26.729a5.041 5.041 0 0 1 7.141 0L97.9 44.585l3.1 3.105V5.05A5.055 5.055 0 0 1 106.053 0h101a5.055 5.055 0 0 1 5.049 5.049V49.92l.182.019.371.037c20.326 2.248 38.252 15.763 44.607 33.629a54.7 54.7 0 0 1 2.916 16.605 39.952 39.952 0 0 1-2.641 16.264 60.436 60.436 0 0 1-1.8 14.391 58.228 58.228 0 0 1-4.949 12.963 54.07 54.07 0 0 1-17.5 19.7l2.738 8.365a68.953 68.953 0 0 1 26.674 6.748 67.8 67.8 0 0 1 21.223 16.077 73.372 73.372 0 0 1 14.018 23.556A84.044 84.044 0 0 1 303 247.448v50.5a5.057 5.057 0 0 1-5.053 5.052zm-30.391-60.878V293H293v-45.791c0-36.221-23.016-63.307-55.973-65.868v25.167a5.09 5.09 0 0 1-6.98 4.722l-23.547-9.421-23.549 9.426a5.1 5.1 0 0 1-1.889.359 5.008 5.008 0 0 1-2.848-.875 5.089 5.089 0 0 1-2.234-4.211V181c-.256.021-.52.039-.746.055-.408.027-.828.056-1.238.1-.906.1-1.812.251-2.689.4l-.053.009-.2.032-.275.047c-.854.144-1.82.306-2.729.506-.943.21-1.852.45-2.926.746-.943.256-1.865.512-2.777.815-1.037.337-2.037.719-2.893 1.051-.639.245-1.6.619-2.543 1.036-.879.395-1.811.846-2.848 1.378-.861.446-1.578.82-2.3 1.234-.838.476-1.744 1.03-2.773 1.7-.785.5-1.461.957-2.068 1.387-.887.63-1.795 1.316-2.7 2.04-.641.515-1.229 1-1.793 1.493-1.023.892-1.857 1.658-2.625 2.414-.514.5-1.023 1.021-1.512 1.534-.92.969-1.75 1.895-2.533 2.828-.49.589-.877 1.065-1.217 1.5-.916 1.167-1.711 2.242-2.432 3.289-.2.3-.406.608-.6.908l-.127.191-.184.282c-.855 1.313-1.611 2.563-2.309 3.819-.123.227-.248.46-.367.686l-.018.032q-.056.111-.117.223l-.119.225c-.811 1.536-1.51 2.976-2.139 4.4l-.039.092-.006.018c-.107.252-.219.513-.322.771-.744 1.762-1.367 3.4-1.9 5.013l-.09.276-.014.048-.037.114-.035.114c-.629 1.947-1.146 3.79-1.58 5.634l-.018.071-.012.039c0 .015-.006.028-.008.041a.447.447 0 0 1-.014.052 77.1 77.1 0 0 0-1.844 12.788v.009c-.01.188-.021.375-.033.563-.086 1.363-.174 2.772-.174 4.211V293h25.443v-50.877h10.176V293h101.762v-50.877h10.172zM10 224v14h14a19.5 19.5 0 0 0-14-14zm24.844-77a30.1 30.1 0 0 1-3 8.926 30.466 30.466 0 0 1-12.908 12.9 30.124 30.124 0 0 1-8.932 3v41.355a30.137 30.137 0 0 1 8.932 3 30.48 30.48 0 0 1 12.908 12.9 30.137 30.137 0 0 1 3 8.924h76.976a80.03 80.03 0 0 1 9.836-30.732c.066-.115.131-.234.193-.35l.053-.093.033-.062c.082-.151.168-.308.256-.457.723-1.224 1.549-2.515 2.6-4.063l.2-.29.033-.051c.283-.417.574-.849.871-1.263.807-1.117 1.668-2.234 2.631-3.418.535-.664 1.08-1.3 1.543-1.829.924-1.061 1.807-2.019 2.7-2.93.555-.57 1.137-1.125 1.7-1.662l.037-.034.188-.179.006-.006.051-.049c.877-.821 1.783-1.672 2.713-2.456.77-.648 1.588-1.277 2.313-1.833l.369-.288.082-.063c.717-.559 1.529-1.193 2.34-1.759.705-.49 1.457-.956 2.121-1.367l.291-.183c.143-.088.283-.177.426-.266.262-.165.521-.332.768-.49.576-.371 1.229-.792 1.891-1.163 1.877-1.057 3.785-2.016 5.67-2.852.418-.184.854-.346 1.24-.489.236-.088.531-.2.807-.308 1.4-.57 2.773-1.121 4.191-1.59.531-.174 1.08-.324 1.613-.47l.023-.007.162-.045c.252-.069.514-.141.768-.215l.045-.013c1.275-.362 2.594-.737 3.926-1.033.775-.173 1.6-.318 2.332-.447l.441-.078c1.514-.276 2.8-.476 4.045-.627.969-.121 1.961-.205 2.9-.28.281-.021.563-.053.836-.083l.076-.009h.02c.391-.044.793-.088 1.2-.109l1.055-3.151 1.585-4.756c-.162-.11-.311-.218-.455-.322l-.051-.037c-.105-.076-.211-.152-.322-.23-.561-.388-1.156-.806-1.723-1.239-.672-.515-1.332-1.045-2.018-1.621-.012 0-.486-.4-.494-.414a1 1 0 0 1-.078-.08l-.014-.015c-.041-.044-.078-.08-.115-.113a53.175 53.175 0 0 1-4.449-4.4c-.025-.029-.051-.062-.076-.094l-.076-.095a54.718 54.718 0 0 1-3.713-4.718c-.045-.06-.094-.118-.137-.168-.059-.069-.121-.144-.178-.224-.115-.171-.221-.335-.322-.5l-.072-.113c-.109-.175-.211-.333-.311-.483l-.176-.267c-.383-.58-.814-1.236-1.2-1.889l-.008-.011a.591.591 0 0 1-.053-.078H34.842zM227 188l-10 8 10 4v-12zm-39 0v12l10-3.953-4.059-3.271L188 188zm2.143-20l-1.5 4.423-.643 1.889L207.521 190 227 174.615l-2.191-6.6c-.16.065-.326.118-.486.169l-.023.007c-.082.026-.168.054-.25.082-.867.328-1.748.63-2.691.922-.562.177-1.18.352-2 .566-.738.193-1.6.415-2.5.6-.623.124-1.262.222-1.826.309l-.537.083-.281.048-.053.01c-.172.031-.389.07-.592.095l-.1.021a1.4 1.4 0 0 1-.186.034.249.249 0 0 1-.055 0c-.256.031-.643.077-1.045.12-1.084.113-2.154.15-3.34.185-.174 0-.35.018-.518.029l-.076.006h-.01c-.242.019-.492.037-.742.037h-.023c-1.057 0-2.219-.059-3.658-.185-.145-.014-.293-.023-.436-.032h-.074c-.154-.009-.332-.021-.508-.036-.311-.031-.623-.075-.928-.119h-.037c-.176-.025-.361-.051-.537-.074a.643.643 0 0 0-.086-.01h-.043c-.08-.015-.553-.092-.631-.1l-.035-.006-.047-.008h-.01l-.012-.006h-.006l-.02-.01-.238-.036c-.633-.095-1.348-.2-2.043-.342-.752-.154-1.559-.349-2.533-.612-.777-.2-1.4-.377-1.971-.553-.922-.284-1.832-.6-2.705-.926-.107-.041-.217-.077-.324-.112l-.039-.013h-.012c-.134-.058-.269-.105-.401-.158zm5.1-9.172h.028c.846.3 1.744.614 2.645.861l.031.009c.307.082.652.175 1 .25l.543.111.332.068.238.051.057.012c.736.157 1.5.32 2.254.426.281.04.539.069.787.1l.082.01.338.038h.018a37.268 37.268 0 0 0 4.1.229 35.1 35.1 0 0 0 4.271-.262c.066-.014.131-.021.191-.03h.02a35.682 35.682 0 0 0 4.316-.825.379.379 0 0 1 .063-.019l.035-.009a38.136 38.136 0 0 0 8.684-3.45.051.051 0 0 1 .027-.013.052.052 0 0 0 .023-.006C236.4 150.3 244.3 139.158 247 125.82a3.518 3.518 0 0 1-.387.015 2.435 2.435 0 0 0-.318.014c-.107.009-.219.022-.326.035l-.088.01a6.769 6.769 0 0 1-.807.065 2.056 2.056 0 0 1-.26-.021h-.014a2.36 2.36 0 0 0-.254-.023c-.383-.01-.76-.054-1.092-.093a14.885 14.885 0 0 1-1.6-.234c-.33-.064-.648-.144-1-.232l-.047-.012c-.562-.148-1.068-.3-1.547-.466-.354-.119-.67-.235-.969-.354-.557-.223-1.033-.429-1.459-.631-.328-.146-.607-.278-.877-.415-.441-.226-.883-.467-1.35-.737l-.125-.07c-.187-.106-.408-.231-.625-.357-.428-.259-.822-.516-1.221-.778-.094-.065-.193-.13-.289-.192l-.035-.023h-.008c-.088-.057-.174-.114-.258-.171-.406-.281-.76-.536-1.082-.779l-.088-.065c-.125-.09-.219-.159-.295-.22-.408-.308-.777-.6-1.064-.843a37.468 37.468 0 0 1-4.248-4.243.149.149 0 0 0-.037-.026h-.006a.157.157 0 0 1-.039-.029c-.055-.062-.107-.129-.156-.192l-.031-.039c-.057-.072-.107-.137-.154-.192-.475-.557-.953-1.148-1.422-1.76a1.149 1.149 0 0 0-.107-.134v-.015a.258.258 0 0 0-.02-.036.042.042 0 0 0-.02-.02.031.031 0 0 1-.016-.013c-.09-.117-.174-.24-.244-.347l-.148-.216A58.428 58.428 0 0 1 214.648 95a95.379 95.379 0 0 1-8.541 6.343l-.18.12a.022.022 0 0 1-.012 0h-.01c-1.426.942-2.936 1.873-4.488 2.765h-.01l-.068.037c-1.855 1.062-3.746 2.051-5.621 2.939a.065.065 0 0 0-.021.018l-.02.02h-.01l-.037.019-.018.008-.061.028c-.014.007-.115.054-.225.1l-.121.055c-.086.037-.152.067-.166.074a.324.324 0 0 1-.053.024l-.014.006h-.006a.532.532 0 0 1-.1.046.015.015 0 0 1-.01 0 .009.009 0 0 0-.008 0c-2.271 1.046-4.076 1.8-5.852 2.451-.283.1-.631.224-.937.329l-.236.082-.207.072c-.154.047-.338.1-.521.166-.457.153-.947.309-1.5.475-.09.028-.17.052-.254.076l-.207.062c-.832.246-1.588.452-2.309.631-.045.013-.094.024-.141.035l-.045.011c-.068.015-.123.028-.174.042-.854.207-1.627.38-2.367.53l-.285.062-.082.017-.043.009a47.078 47.078 0 0 1-6.059.788c-.043.006-.086.008-.127.01h-.07c-.646.036-1.287.055-1.9.055a27.05 27.05 0 0 1-4.395-.341c-.014.27-.031.541-.043.747-.033.491-.061.935-.066 1.391 0 .091-.014.359-.018.439l-.01.161v.014a48.916 48.916 0 0 0 .328 5.491c.037.351.09.705.139 1.011l.031.22c.213 1.586.49 3.1.82 4.51.025.1.049.206.07.31l.025.118.027.116.074.322a47.757 47.757 0 0 0 3.994 10.531l.035.066c.045.077.088.153.131.233a46.955 46.955 0 0 0 2.719 4.473l.012.017a.379.379 0 0 1 .047.065 44.089 44.089 0 0 0 7.17 8.035c.152.133.313.265.434.364l.234.193a41.53 41.53 0 0 0 3.436 2.575c.109.07.227.148.365.246l.012.007c.127.088.258.178.393.263 1.01.638 2.084 1.187 3.123 1.717l.074.038.041.023h.01c.713.365 1.443.709 2.17 1.022.367.161.754.32 1.18.488.373.142.76.284 1.146.424zM10 147v14a19.485 19.485 0 0 0 14-14zm48.213-93L29 83.5a30.706 30.706 0 0 1 0 35.237L46.092 136h27.8a16.925 16.925 0 0 1-1.738-9.836 16.2 16.2 0 0 1 1.379-4.844 14.658 14.658 0 0 1 2.889-4.176l7.123 7.19a5.726 5.726 0 0 0 4.373 9.751 5.969 5.969 0 0 0 2.141-.381v-28.223a5.128 5.128 0 0 1 1.473-3.593 14.664 14.664 0 0 1 5.1-3.337 16.142 16.142 0 0 1 5.926-1.106 16.489 16.489 0 0 1 6.965 1.536l2.156-2.179 7.121 7.191-2.16 2.179a17.075 17.075 0 0 1 1.344 9.524 15.338 15.338 0 0 1-4.219 8.64l-7.121-7.19a6.218 6.218 0 0 0 0-8.066 5.59 5.59 0 0 0-3.992-1.5 6.324 6.324 0 0 0-2.518.506V136H159c-.072-.211-.137-.43-.193-.622-.062-.211-.117-.39-.17-.549l-.055-.169c-.312-.952-.666-2.032-.955-3.115-.068-.267-.129-.541-.186-.807v-.011c-.045-.2-.094-.421-.143-.629-.412-1.709-.748-3.413-1-5.063l-.033-.206c-.148-.962-.316-2.052-.424-3.119-.047-.43-.068-.87-.09-1.3v-.037l-.027-.57c-.008-.116-.018-.232-.025-.35l-.029-.365-.008-.109c-.047-.632-.1-1.286-.113-1.931L101.6 62.579 93.1 54a30.481 30.481 0 0 1-8.375 4.248 29.247 29.247 0 0 1-18.137 0A30.5 30.5 0 0 1 58.213 54zm171.252 51.32l.006.008c.443.7.861 1.321 1.281 1.9l.006.009.008.014.006.009a.153.153 0 0 1 .02.024l.008.011a.125.125 0 0 0 .02.025c.5.69.971 1.29 1.428 1.833a28.644 28.644 0 0 0 3.188 3.3c2.586 2.253 6.49 4.533 8.951 4.533a2.729 2.729 0 0 0 1.041-.18 5.812 5.812 0 0 0 2.387-2.921.221.221 0 0 1 .033-.05l.008-.011a.292.292 0 0 0 .041-.06 30.958 30.958 0 0 0 2.09-11.629A45.128 45.128 0 0 0 247.637 87c-5.016-14.489-19.912-25.9-36.223-27.756A40.936 40.936 0 0 0 206.8 59h-.225c-.2 0-.428.01-.623.019-.719.013-1.541.053-2.516.124-.352.021-.736.053-1.211.1-.707.071-1.494.178-2.557.346l-.414.061c-.322.046-.615.088-.922.146-1.187.217-2.477.52-3.832.9-.3.088-.615.2-.918.3l-.033.011-.1.035c-.178.061-.361.123-.541.181-.975.316-1.859.636-2.7.977-.592.242-1.193.518-1.76.779-.9.418-1.822.9-2.828 1.479-.086.05-.174.1-.262.147l-.174.1c-.4.222-.754.424-1.107.647a37.2 37.2 0 0 0-4.285 3.109c-9.516 8.11-15.217 20.679-15.75 28.387a16.905 16.905 0 0 0-.023 1.843 1.673 1.673 0 0 0 .025.239c0 .037.01.08.016.125a10.219 10.219 0 0 0 .135 1.229 1.7 1.7 0 0 0 .053.194l.006.021c.018.054.035.112.051.176.01.033.018.066.025.1s.018.067.025.1l.014.046a4.885 4.885 0 0 0 .2.647 1.178 1.178 0 0 0 .109.2l.01.016a1.25 1.25 0 0 1 .078.125l.045.088a2.84 2.84 0 0 0 .328.53h.006l.008.006a1.267 1.267 0 0 0 .3.222l.012.007h.008a2.161 2.161 0 0 1 .2.126 4.564 4.564 0 0 0 1.174.636l.047.01a.328.328 0 0 1 .055.013 8.863 8.863 0 0 0 1.8.405 16.145 16.145 0 0 0 2.119.12h.18c.787 0 1.639-.055 2.533-.147l.045-.008h.02c.039-.007.082-.014.119-.017.855-.1 1.723-.221 2.58-.373.055-.01.113-.022.18-.037l.055-.012.148-.029c.889-.165 1.725-.344 2.486-.53.123-.03.248-.066.357-.1s.234-.068.361-.1l.029-.008c.707-.187 1.438-.382 2.146-.6.994-.307 1.943-.633 2.818-.968A76.485 76.485 0 0 0 205.26 89.2a72.386 72.386 0 0 0 7.975-7.413v-.006a5.092 5.092 0 0 1 1.176-.986.654.654 0 0 1 .1-.046l.016-.006a.646.646 0 0 0 .1-.04l.031-.014.033-.014.027-.012.037-.017a4.313 4.313 0 0 1 .465-.207 4.9 4.9 0 0 1 .857-.254.593.593 0 0 0 .141-.046.642.642 0 0 1 .117-.041h.041a.555.555 0 0 1 .107.011.624.624 0 0 0 .133.014.727.727 0 0 0 .1-.015h.016a.687.687 0 0 1 .117-.015.237.237 0 0 0 .076-.017.265.265 0 0 1 .076-.016h.046a4.853 4.853 0 0 1 1 .154l.029.007c.049.012.1.019.152.025h.006a1.1 1.1 0 0 1 .188.033.094.094 0 0 0 .033.007h.006a.126.126 0 0 1 .039.007 4.88 4.88 0 0 1 1.438.755 1.9 1.9 0 0 1 .256.229l.037.035c.033.035.07.07.107.1a5.069 5.069 0 0 1 .8.926l.006.012a4.163 4.163 0 0 1 .3.49 5.227 5.227 0 0 1 .529 1.575.273.273 0 0 0 .02.054.252.252 0 0 1 .021.066l.176 1.129c.027.156.057.316.092.5l.012.063.025.146.014.069c.059.313.129.664.2 1.014l.082.373a56.464 56.464 0 0 0 6.846 17.478zM21.438 92L12 102.5l9.438 10.5a22.719 22.719 0 0 0 0-21zm113.384-82a30.034 30.034 0 0 1-3 8.922 30.442 30.442 0 0 1-5.461 7.437 30.354 30.354 0 0 1-7.436 5.46 30.065 30.065 0 0 1-8.922 3v22.913L153.281 101a1.687 1.687 0 0 1-.008-.265v-.029a1.4 1.4 0 0 0-.008-.24 23.657 23.657 0 0 1-.152-4.644 42.091 42.091 0 0 1 3.863-14.088 60.58 60.58 0 0 1 8.631-13.649V65.6a5.056 5.056 0 0 0 1.773-9.789l-18.419 18.41a5.067 5.067 0 0 1-3.574 1.483 14.911 14.911 0 0 1-8.8-2.853 15.242 15.242 0 0 1-5.437-7.251h-5.984V55.489h5.984a15.232 15.232 0 0 1 5.434-7.257 14.911 14.911 0 0 1 8.8-2.854v10.111a5.056 5.056 0 0 0-1.775 9.789l18.424-18.417a5.074 5.074 0 0 1 3.574-1.483 14.863 14.863 0 0 1 9.025 3.026 15.377 15.377 0 0 1 5.389 7.656c.088-.047.178-.089.25-.123l.043-.021c.063-.03.127-.061.191-.095.934-.5 1.811-.929 2.676-1.322l.354-.168c.182-.088.322-.154.457-.215 1.242-.539 2.371-.984 3.451-1.363.078-.028.158-.053.232-.076s.16-.051.232-.076c.967-.327 1.92-.624 2.834-.88.406-.111.8-.21 1.234-.319l.064-.017c.664-.17 1.262-.312 1.824-.437.51-.113 1.031-.221 1.549-.318.449-.082.865-.154 1.271-.221 1.652-.276 3.061-.464 4.311-.571V34.814a30.146 30.146 0 0 1-8.924-3 30.487 30.487 0 0 1-12.9-12.9 30.1 30.1 0 0 1-3-8.922zM76.5 38L66 47.437a22.8 22.8 0 0 0 21 0zM187 10a19.522 19.522 0 0 0 14 14V10zm-76 0v14a19.515 19.515 0 0 0 14-14z" transform="translate(.002 -.001)"/>
</svg>
